M48
; DRILL file {KiCad 8.0.5} date 2025-03-30T22:56:10-0400
; FORMAT={-:-/ absolute / inch / decimal}
; #@! TF.CreationDate,2025-03-30T22:56:10-04:00
; #@! TF.GenerationSoftware,Kicad,Pcbnew,8.0.5
; #@! TF.FileFunction,Plated,1,4,PTH
FMAT,2
INCH
; #@! TA.AperFunction,Plated,PTH,ComponentDrill
T1C0.0079
; #@! TA.AperFunction,Plated,PTH,ViaDrill
T2C0.0157
; #@! TA.AperFunction,Plated,PTH,ComponentDrill
T3C0.0197
; #@! TA.AperFunction,Plated,PTH,ComponentDrill
T4C0.0217
; #@! TA.AperFunction,Plated,PTH,ComponentDrill
T5C0.0236
; #@! TA.AperFunction,Plated,PTH,ComponentDrill
T6C0.0335
; #@! TA.AperFunction,Plated,PTH,ComponentDrill
T7C0.0390
; #@! TA.AperFunction,Plated,PTH,ComponentDrill
T8C0.0394
; #@! TA.AperFunction,Plated,PTH,ComponentDrill
T9C0.0402
; #@! TA.AperFunction,Plated,PTH,ComponentDrill
T10C0.0598
; #@! TA.AperFunction,Plated,PTH,ComponentDrill
T11C0.0610
; #@! TA.AperFunction,Plated,PTH,ComponentDrill
T12C0.0689
; #@! TA.AperFunction,Plated,PTH,ComponentDrill
T13C0.1260
%
G90
G05
T1
X6.658Y-2.245
X6.658Y-2.3001
X6.6855Y-2.2174
X6.6855Y-2.2725
X6.6855Y-2.3276
X6.7131Y-2.245
X6.7131Y-2.3001
X6.7406Y-2.2174
X6.7406Y-2.2725
X6.7406Y-2.3276
X6.7682Y-2.245
X6.7682Y-2.3001
T2
X5.56Y-3.46
X5.65Y-3.42
X5.8858Y-3.3489
X5.8858Y-3.9279
X5.89Y-3.64
X5.9596Y-3.2544
X5.9646Y-3.34
X6.08Y-3.14
X6.122Y-3.3489
X6.1777Y-2.2377
X6.2548Y-2.0635
X6.2972Y-4.0215
X6.2992Y-4.07
X6.3149Y-4.11
X6.32Y-4.4525
X6.3229Y-2.6418
X6.3878Y-4.3012
X6.3896Y-2.877
X6.3952Y-4.3509
X6.3958Y-4.1241
X6.4173Y-4.0453
X6.4276Y-2.3686
X6.4276Y-2.4186
X6.4276Y-2.6186
X6.43Y-2.82
X6.44Y-2.73
X6.4641Y-4.1147
X6.4696Y-3.2727
X6.4805Y-2.5401
X6.4863Y-3.2363
X6.53Y-3.875
X6.5441Y-2.37
X6.5441Y-2.41
X6.5456Y-4.3402
X6.55Y-2.67
X6.5822Y-4.469
X6.5846Y-4.3765
X6.5971Y-2.6678
X6.6Y-2.73
X6.6019Y-4.1246
X6.6118Y-4.282
X6.6343Y-3.0561
X6.6421Y-4.0895
X6.6506Y-2.7757
X6.6511Y-4.1836
X6.69Y-2.7746
X6.6934Y-4.0645
X6.6972Y-2.9149
X6.7028Y-3.5039
X6.7087Y-4.2441
X6.7249Y-3.825
X6.7283Y-4.4094
X6.7323Y-4.1535
X6.7421Y-4.4783
X6.7508Y-3.2528
X6.7727Y-4.3189
X6.8012Y-4.0162
X6.8022Y-4.2244
X6.8066Y-4.2721
X6.82Y-3.8659
X6.8307Y-3.9567
X6.8465Y-4.2953
X6.9227Y-3.7082
X6.9242Y-3.9124
X6.926Y-3.9517
X6.9282Y-3.8672
X6.9346Y-3.7653
X6.9882Y-4.1634
X6.9971Y-2.6678
X7.0177Y-4.13
X7.0945Y-4.2974
X7.0965Y-3.8583
X7.0985Y-3.9292
X7.11Y-2.47
X7.11Y-4.26
X7.1166Y-2.2186
X7.1166Y-2.3186
X7.1346Y-4.4369
X7.137Y-3.3011
X7.1654Y-4.065
X7.1752Y-2.6181
X7.2047Y-2.4635
X7.2108Y-2.748
X7.23Y-3.46
X7.2384Y-4.2421
X7.2441Y-2.5886
X7.2501Y-2.7457
X7.2539Y-4.0059
X7.2643Y-2.9379
X7.2643Y-3.3516
X7.2862Y-3.4962
X7.2953Y-2.4369
X7.3041Y-2.7657
X7.3053Y-4.4864
X7.3425Y-2.2835
X7.35Y-2.68
X7.3992Y-3.701
X7.4051Y-3.5865
X7.4342Y-3.5599
X7.4622Y-3.6122
X7.4994Y-3.8681
X7.5541Y-3.8632
X7.593Y-4.1356
X7.5969Y-4.0433
T3
X6.5157Y-3.3465
X6.5157Y-3.4252
T4
X6.4484Y-4.589
X6.676Y-4.589
T6
X6.5531Y-3.7205
X6.75Y-3.7205
T7
X5.9941Y-2.7657
X5.9941Y-3.0217
X5.9996Y-2.3784
X5.9996Y-2.6343
X6.1713Y-2.7657
X6.1713Y-3.0217
X6.1768Y-2.3784
X6.1768Y-2.6343
T8
X5.6164Y-3.07
X5.8132Y-3.07
X6.26Y-3.44
X6.26Y-3.54
X6.26Y-3.64
X6.26Y-3.74
X7.18Y-3.5704
X7.18Y-3.6704
X7.18Y-3.7704
X7.18Y-3.8704
X7.2343Y-2.0095
X7.2343Y-2.1095
X7.2343Y-2.2095
T9
X7.4728Y-2.3281
X7.4728Y-2.4462
X7.4728Y-2.5643
X7.5909Y-2.3281
X7.5909Y-2.4462
X7.5909Y-2.5643
T10
X5.9516Y-4.685
X6.1516Y-4.685
X6.9681Y-4.6839
X7.1681Y-4.6839
X7.515Y-4.32
X7.515Y-4.52
X7.5197Y-3.26
X7.5197Y-3.46
X7.52Y-2.84
X7.52Y-3.04
T11
X5.6776Y-4.2922
T12
X5.5776Y-4.1922
X5.5776Y-4.3922
X5.7776Y-4.1922
X5.7776Y-4.3922
T13
X5.6299Y-2.0524
X5.6299Y-4.75
X7.5512Y-2.0524
X7.5512Y-4.75
T5
G00X6.3916Y-4.548
M15
G01X6.3916Y-4.5913
M16
G05
G00X6.3921Y-4.7185
M15
G01X6.3921Y-4.75
M16
G05
G00X6.7323Y-4.7185
M15
G01X6.7323Y-4.75
M16
G05
G00X6.7338Y-4.5482
M15
G01X6.7338Y-4.5915
M16
G05
M30
