%TF.GenerationSoftware,KiCad,Pcbnew,8.0.5*%
%TF.CreationDate,2025-03-30T22:56:12-04:00*%
%TF.ProjectId,TR3V4,54523356-342e-46b6-9963-61645f706362,rev?*%
%TF.SameCoordinates,Original*%
%TF.FileFunction,Soldermask,Bot*%
%TF.FilePolarity,Negative*%
%FSLAX46Y46*%
G04 Gerber Fmt 4.6, Leading zero omitted, Abs format (unit mm)*
G04 Created by KiCad (PCBNEW 8.0.5) date 2025-03-30 22:56:12*
%MOMM*%
%LPD*%
G01*
G04 APERTURE LIST*
G04 Aperture macros list*
%AMRoundRect*
0 Rectangle with rounded corners*
0 $1 Rounding radius*
0 $2 $3 $4 $5 $6 $7 $8 $9 X,Y pos of 4 corners*
0 Add a 4 corners polygon primitive as box body*
4,1,4,$2,$3,$4,$5,$6,$7,$8,$9,$2,$3,0*
0 Add four circle primitives for the rounded corners*
1,1,$1+$1,$2,$3*
1,1,$1+$1,$4,$5*
1,1,$1+$1,$6,$7*
1,1,$1+$1,$8,$9*
0 Add four rect primitives between the rounded corners*
20,1,$1+$1,$2,$3,$4,$5,0*
20,1,$1+$1,$4,$5,$6,$7,0*
20,1,$1+$1,$6,$7,$8,$9,0*
20,1,$1+$1,$8,$9,$2,$3,0*%
G04 Aperture macros list end*
%ADD10R,3.000000X3.000000*%
%ADD11C,3.000000*%
%ADD12RoundRect,0.237500X0.237500X-0.250000X0.237500X0.250000X-0.237500X0.250000X-0.237500X-0.250000X0*%
%ADD13RoundRect,0.056280X1.030720X0.345720X-1.030720X0.345720X-1.030720X-0.345720X1.030720X-0.345720X0*%
%ADD14C,5.700000*%
%ADD15C,1.484000*%
%ADD16R,1.000000X1.000000*%
%ADD17O,1.000000X1.800000*%
%ADD18O,1.000000X2.100000*%
%ADD19C,0.750000*%
%ADD20C,1.020000*%
%ADD21RoundRect,0.250001X0.499999X-0.499999X0.499999X0.499999X-0.499999X0.499999X-0.499999X-0.499999X0*%
%ADD22C,1.500000*%
%ADD23R,1.700000X1.700000*%
%ADD24O,1.700000X1.700000*%
%ADD25C,0.600000*%
%ADD26R,2.000000X2.000000*%
%ADD27C,2.000000*%
%ADD28C,1.498600*%
%ADD29C,2.529000*%
%ADD30C,2.829000*%
%ADD31O,1.350000X0.449999*%
%ADD32RoundRect,0.237500X0.250000X0.237500X-0.250000X0.237500X-0.250000X-0.237500X0.250000X-0.237500X0*%
%ADD33RoundRect,0.102000X-1.980000X1.980000X-1.980000X-1.980000X1.980000X-1.980000X1.980000X1.980000X0*%
%ADD34RoundRect,0.102000X-2.085000X2.085000X-2.085000X-2.085000X2.085000X-2.085000X2.085000X2.085000X0*%
%ADD35RoundRect,0.049250X0.147750X-0.372750X0.147750X0.372750X-0.147750X0.372750X-0.147750X-0.372750X0*%
%ADD36RoundRect,0.049250X0.147750X-0.375250X0.147750X0.375250X-0.147750X0.375250X-0.147750X-0.375250X0*%
%ADD37RoundRect,0.049250X0.147750X-0.370250X0.147750X0.370250X-0.147750X0.370250X-0.147750X-0.370250X0*%
%ADD38RoundRect,0.048000X0.144000X-0.374000X0.144000X0.374000X-0.144000X0.374000X-0.144000X-0.374000X0*%
%ADD39RoundRect,0.048000X0.374000X-0.144000X0.374000X0.144000X-0.374000X0.144000X-0.374000X-0.144000X0*%
%ADD40RoundRect,0.049250X0.372750X-0.147750X0.372750X0.147750X-0.372750X0.147750X-0.372750X-0.147750X0*%
%ADD41RoundRect,0.049250X0.370250X-0.147750X0.370250X0.147750X-0.370250X0.147750X-0.370250X-0.147750X0*%
%ADD42RoundRect,0.050500X0.151500X-0.371500X0.151500X0.371500X-0.151500X0.371500X-0.151500X-0.371500X0*%
%ADD43R,0.254000X0.279400*%
%ADD44R,0.254000X0.254000*%
%ADD45R,0.500000X0.605600*%
%ADD46RoundRect,0.237500X-0.237500X0.250000X-0.237500X-0.250000X0.237500X-0.250000X0.237500X0.250000X0*%
%ADD47R,0.889000X0.812800*%
%ADD48RoundRect,0.200000X-0.200000X-0.275000X0.200000X-0.275000X0.200000X0.275000X-0.200000X0.275000X0*%
%ADD49R,0.605600X0.500000*%
%ADD50RoundRect,0.237500X-0.250000X-0.237500X0.250000X-0.237500X0.250000X0.237500X-0.250000X0.237500X0*%
%ADD51R,0.900800X1.549400*%
%ADD52R,3.200400X1.549400*%
%ADD53RoundRect,0.250000X-0.650000X0.325000X-0.650000X-0.325000X0.650000X-0.325000X0.650000X0.325000X0*%
%ADD54R,0.609600X0.508000*%
%ADD55R,0.812800X0.889000*%
G04 APERTURE END LIST*
D10*
%TO.C,J5*%
X191008000Y-77216000D03*
D11*
X191008000Y-72136000D03*
%TD*%
D12*
%TO.C,R3*%
X173228000Y-98194500D03*
X173228000Y-96369500D03*
%TD*%
D13*
%TO.C,Q8*%
X170812000Y-97155000D03*
X170812000Y-98425000D03*
X170812000Y-99695000D03*
X170812000Y-100965000D03*
X165862000Y-100965000D03*
X165862000Y-99695000D03*
X165862000Y-98425000D03*
X165862000Y-97155000D03*
%TD*%
D14*
%TO.C,*%
X143000000Y-52130000D03*
%TD*%
D15*
%TO.C,LS1*%
X166450000Y-94500000D03*
X171450000Y-94500000D03*
%TD*%
D16*
%TO.C,TX2*%
X165500000Y-87000000D03*
%TD*%
D17*
%TO.C,J2*%
X162359996Y-120250000D03*
X171000000Y-120250000D03*
D18*
X162347347Y-116070000D03*
X171037649Y-116073350D03*
D19*
X163789998Y-116561600D03*
X169569998Y-116561600D03*
%TD*%
D20*
%TO.C,J6*%
X193750000Y-68134000D03*
X193750000Y-56134000D03*
D21*
X189810000Y-65134000D03*
D22*
X189810000Y-62134000D03*
X189810000Y-59134000D03*
X192810000Y-65134000D03*
X192810000Y-62134000D03*
X192810000Y-59134000D03*
%TD*%
D14*
%TO.C,*%
X191800000Y-120650000D03*
%TD*%
D23*
%TO.C,J3*%
X183750000Y-51042000D03*
D24*
X183750000Y-53582000D03*
X183750000Y-56122000D03*
%TD*%
D16*
%TO.C,RX2*%
X165500000Y-85000000D03*
%TD*%
D10*
%TO.C,SW1*%
X176990583Y-118970001D03*
D11*
X182070583Y-118970001D03*
%TD*%
D25*
%TO.C,U11*%
X169112000Y-57022000D03*
X169112000Y-58422000D03*
X169812000Y-56322000D03*
X169812000Y-57722000D03*
X169812000Y-59122000D03*
X170512000Y-57022000D03*
X170512000Y-58422000D03*
X171212000Y-56322000D03*
X171212000Y-57722000D03*
X171212000Y-59122000D03*
X171912000Y-57022000D03*
X171912000Y-58422000D03*
%TD*%
D26*
%TO.C,C3*%
X147655677Y-77978000D03*
D27*
X142655677Y-77978000D03*
%TD*%
D28*
%TO.C,SW4*%
X152390417Y-60412000D03*
X156890418Y-66912002D03*
X156890418Y-60412000D03*
X152390417Y-66912002D03*
%TD*%
D23*
%TO.C,J7*%
X159004000Y-87376000D03*
D24*
X159004000Y-89916000D03*
X159004000Y-92456000D03*
X159004000Y-94996000D03*
%TD*%
D14*
%TO.C,*%
X143000000Y-120650000D03*
%TD*%
D29*
%TO.C,AE1*%
X144210000Y-109021800D03*
D30*
X141670000Y-106481800D03*
X146750000Y-106481800D03*
X141670000Y-111561800D03*
X146750000Y-111561800D03*
%TD*%
D10*
%TO.C,J4*%
X190881000Y-114808000D03*
D11*
X190881000Y-109728000D03*
%TD*%
D10*
%TO.C,J1*%
X151170000Y-119000000D03*
D11*
X156250000Y-119000000D03*
%TD*%
D14*
%TO.C,*%
X191800000Y-52130000D03*
%TD*%
D28*
%TO.C,SW2*%
X156750000Y-70250000D03*
X156750000Y-76750002D03*
X152249999Y-70250000D03*
X152249999Y-76750002D03*
%TD*%
D31*
%TO.C,U9*%
X179832000Y-84246001D03*
X179832000Y-83596000D03*
X179832000Y-82946001D03*
X179832000Y-82296000D03*
X175381999Y-82296000D03*
X175381999Y-82946001D03*
X175381999Y-83596000D03*
X175381999Y-84246001D03*
%TD*%
D32*
%TO.C,R29*%
X177662500Y-94250000D03*
X175837500Y-94250000D03*
%TD*%
D12*
%TO.C,R4*%
X166000000Y-92500000D03*
X166000000Y-90675000D03*
%TD*%
D33*
%TO.C,BT1*%
X146500000Y-92500000D03*
D34*
X146500000Y-84815000D03*
X146500000Y-100185000D03*
%TD*%
D13*
%TO.C,Q6*%
X178300000Y-112200000D03*
X178300000Y-113470000D03*
X178300000Y-114740000D03*
X178300000Y-116010000D03*
X173350000Y-116010000D03*
X173350000Y-114740000D03*
X173350000Y-113470000D03*
X173350000Y-112200000D03*
%TD*%
D35*
%TO.C,U5*%
X183792500Y-111790000D03*
D36*
X183392500Y-111787500D03*
D35*
X182992500Y-111790000D03*
X182592500Y-111790000D03*
D37*
X182192500Y-111792500D03*
D38*
X181797500Y-111790000D03*
D39*
X181252500Y-111245000D03*
D40*
X181252500Y-110850000D03*
X181252500Y-110450000D03*
X181252500Y-110050000D03*
X181252500Y-109650000D03*
D41*
X181250000Y-109250000D03*
D35*
X181792500Y-108700000D03*
D36*
X182192500Y-108697500D03*
D37*
X182592500Y-108702500D03*
D38*
X182987500Y-108700000D03*
D42*
X183387500Y-108700000D03*
D38*
X183787500Y-108700000D03*
D40*
X184342500Y-109240000D03*
X184342500Y-109640000D03*
X184342500Y-110040000D03*
X184342500Y-110440000D03*
X184342500Y-110840000D03*
X184342500Y-111240000D03*
%TD*%
D43*
%TO.C,U8*%
X178273001Y-98010300D03*
X177773001Y-98010300D03*
D44*
X177250000Y-97749998D03*
X177250000Y-97249999D03*
X177250000Y-96750000D03*
D43*
X177773001Y-96489698D03*
X178273001Y-96489698D03*
D44*
X178796002Y-96750000D03*
X178796002Y-97249999D03*
X178796002Y-97749998D03*
%TD*%
D45*
%TO.C,C8*%
X161688798Y-112816600D03*
X161688798Y-111711000D03*
%TD*%
D46*
%TO.C,R5*%
X167750000Y-90675000D03*
X167750000Y-92500000D03*
%TD*%
D47*
%TO.C,Q1*%
X169360001Y-92524999D03*
X169360001Y-90475001D03*
X171250000Y-91500000D03*
%TD*%
D48*
%TO.C,R9*%
X163688798Y-109263800D03*
X165338798Y-109263800D03*
%TD*%
D49*
%TO.C,C9*%
X163294398Y-114013800D03*
X162188798Y-114013800D03*
%TD*%
D50*
%TO.C,R18*%
X171507000Y-84296000D03*
X173332000Y-84296000D03*
%TD*%
D51*
%TO.C,U10*%
X175700000Y-102000000D03*
X178000000Y-102000000D03*
X180300000Y-102000000D03*
D52*
X178000000Y-108451600D03*
%TD*%
D53*
%TO.C,C17*%
X183750000Y-102750000D03*
X183750000Y-105700000D03*
%TD*%
D32*
%TO.C,R6*%
X170075000Y-94500000D03*
X168250000Y-94500000D03*
%TD*%
%TO.C,R32*%
X183412500Y-116250000D03*
X181587500Y-116250000D03*
%TD*%
D54*
%TO.C,C11*%
X168688798Y-113013800D03*
X169780998Y-113013800D03*
%TD*%
D55*
%TO.C,Q5*%
X165774999Y-112694999D03*
X163725001Y-112694999D03*
X164750000Y-110805000D03*
%TD*%
D45*
%TO.C,C20*%
X185900000Y-110252800D03*
X185900000Y-109147200D03*
%TD*%
%TO.C,C14*%
X177673000Y-100279200D03*
X177673000Y-99173600D03*
%TD*%
D49*
%TO.C,C18*%
X178494400Y-110300000D03*
X179600000Y-110300000D03*
%TD*%
D50*
%TO.C,R20*%
X171469500Y-82621000D03*
X173294500Y-82621000D03*
%TD*%
D45*
%TO.C,C16*%
X182118000Y-82743200D03*
X182118000Y-83848800D03*
%TD*%
D32*
%TO.C,R26*%
X161912500Y-106500000D03*
X160087500Y-106500000D03*
%TD*%
D45*
%TO.C,C15*%
X178816000Y-99187000D03*
X178816000Y-100292600D03*
%TD*%
D50*
%TO.C,R27*%
X169837500Y-104500000D03*
X171662500Y-104500000D03*
%TD*%
D54*
%TO.C,C10*%
X168692698Y-111163800D03*
X169784898Y-111163800D03*
%TD*%
D45*
%TO.C,C19*%
X180100000Y-111500000D03*
X180100000Y-112605600D03*
%TD*%
D32*
%TO.C,R33*%
X183425000Y-113900000D03*
X181600000Y-113900000D03*
%TD*%
D23*
%TO.C,J8*%
X182372000Y-90688000D03*
D24*
X182372000Y-93228000D03*
X182372000Y-95768000D03*
X182372000Y-98308000D03*
%TD*%
D10*
%TO.C,J5*%
X191000000Y-87884000D03*
D11*
X191000000Y-82804000D03*
%TD*%
M02*
