%TF.GenerationSoftware,KiCad,Pcbnew,8.0.5*%
%TF.CreationDate,2025-03-30T22:56:12-04:00*%
%TF.ProjectId,TR3V4,54523356-342e-46b6-9963-61645f706362,rev?*%
%TF.SameCoordinates,Original*%
%TF.FileFunction,Paste,Bot*%
%TF.FilePolarity,Positive*%
%FSLAX46Y46*%
G04 Gerber Fmt 4.6, Leading zero omitted, Abs format (unit mm)*
G04 Created by KiCad (PCBNEW 8.0.5) date 2025-03-30 22:56:12*
%MOMM*%
%LPD*%
G01*
G04 APERTURE LIST*
G04 Aperture macros list*
%AMRoundRect*
0 Rectangle with rounded corners*
0 $1 Rounding radius*
0 $2 $3 $4 $5 $6 $7 $8 $9 X,Y pos of 4 corners*
0 Add a 4 corners polygon primitive as box body*
4,1,4,$2,$3,$4,$5,$6,$7,$8,$9,$2,$3,0*
0 Add four circle primitives for the rounded corners*
1,1,$1+$1,$2,$3*
1,1,$1+$1,$4,$5*
1,1,$1+$1,$6,$7*
1,1,$1+$1,$8,$9*
0 Add four rect primitives between the rounded corners*
20,1,$1+$1,$2,$3,$4,$5,0*
20,1,$1+$1,$4,$5,$6,$7,0*
20,1,$1+$1,$6,$7,$8,$9,0*
20,1,$1+$1,$8,$9,$2,$3,0*%
G04 Aperture macros list end*
%ADD10RoundRect,0.237500X0.237500X-0.250000X0.237500X0.250000X-0.237500X0.250000X-0.237500X-0.250000X0*%
%ADD11RoundRect,0.042000X0.943000X0.258000X-0.943000X0.258000X-0.943000X-0.258000X0.943000X-0.258000X0*%
%ADD12O,1.350000X0.449999*%
%ADD13RoundRect,0.237500X0.250000X0.237500X-0.250000X0.237500X-0.250000X-0.237500X0.250000X-0.237500X0*%
%ADD14R,4.170000X4.170000*%
%ADD15RoundRect,0.023750X0.071250X-0.296250X0.071250X0.296250X-0.071250X0.296250X-0.071250X-0.296250X0*%
%ADD16RoundRect,0.023750X0.071250X-0.298750X0.071250X0.298750X-0.071250X0.298750X-0.071250X-0.298750X0*%
%ADD17RoundRect,0.023750X0.071250X-0.293750X0.071250X0.293750X-0.071250X0.293750X-0.071250X-0.293750X0*%
%ADD18RoundRect,0.022500X0.067500X-0.297500X0.067500X0.297500X-0.067500X0.297500X-0.067500X-0.297500X0*%
%ADD19RoundRect,0.022500X0.297500X-0.067500X0.297500X0.067500X-0.297500X0.067500X-0.297500X-0.067500X0*%
%ADD20RoundRect,0.023750X0.296250X-0.071250X0.296250X0.071250X-0.296250X0.071250X-0.296250X-0.071250X0*%
%ADD21RoundRect,0.023750X0.293750X-0.071250X0.293750X0.071250X-0.293750X0.071250X-0.293750X-0.071250X0*%
%ADD22RoundRect,0.025000X0.075000X-0.295000X0.075000X0.295000X-0.075000X0.295000X-0.075000X-0.295000X0*%
%ADD23R,0.254000X0.279400*%
%ADD24R,0.254000X0.254000*%
%ADD25R,0.500000X0.605600*%
%ADD26RoundRect,0.237500X-0.237500X0.250000X-0.237500X-0.250000X0.237500X-0.250000X0.237500X0.250000X0*%
%ADD27R,0.889000X0.812800*%
%ADD28RoundRect,0.200000X-0.200000X-0.275000X0.200000X-0.275000X0.200000X0.275000X-0.200000X0.275000X0*%
%ADD29R,0.605600X0.500000*%
%ADD30RoundRect,0.237500X-0.250000X-0.237500X0.250000X-0.237500X0.250000X0.237500X-0.250000X0.237500X0*%
%ADD31R,0.900800X1.549400*%
%ADD32R,3.200400X1.549400*%
%ADD33RoundRect,0.250000X-0.650000X0.325000X-0.650000X-0.325000X0.650000X-0.325000X0.650000X0.325000X0*%
%ADD34R,0.609600X0.508000*%
%ADD35R,0.812800X0.889000*%
G04 APERTURE END LIST*
D10*
%TO.C,R3*%
X173228000Y-98194500D03*
X173228000Y-96369500D03*
%TD*%
D11*
%TO.C,Q8*%
X170812000Y-97155000D03*
X170812000Y-98425000D03*
X170812000Y-99695000D03*
X170812000Y-100965000D03*
X165862000Y-100965000D03*
X165862000Y-99695000D03*
X165862000Y-98425000D03*
X165862000Y-97155000D03*
%TD*%
D12*
%TO.C,U9*%
X179832000Y-84246001D03*
X179832000Y-83596000D03*
X179832000Y-82946001D03*
X179832000Y-82296000D03*
X175381999Y-82296000D03*
X175381999Y-82946001D03*
X175381999Y-83596000D03*
X175381999Y-84246001D03*
%TD*%
D13*
%TO.C,R29*%
X177662500Y-94250000D03*
X175837500Y-94250000D03*
%TD*%
D10*
%TO.C,R4*%
X166000000Y-92500000D03*
X166000000Y-90675000D03*
%TD*%
D14*
%TO.C,BT1*%
X146500000Y-84815000D03*
X146500000Y-100185000D03*
%TD*%
D11*
%TO.C,Q6*%
X178300000Y-112200000D03*
X178300000Y-113470000D03*
X178300000Y-114740000D03*
X178300000Y-116010000D03*
X173350000Y-116010000D03*
X173350000Y-114740000D03*
X173350000Y-113470000D03*
X173350000Y-112200000D03*
%TD*%
D15*
%TO.C,U5*%
X183792500Y-111790000D03*
D16*
X183392500Y-111787500D03*
D15*
X182992500Y-111790000D03*
X182592500Y-111790000D03*
D17*
X182192500Y-111792500D03*
D18*
X181797500Y-111790000D03*
D19*
X181252500Y-111245000D03*
D20*
X181252500Y-110850000D03*
X181252500Y-110450000D03*
X181252500Y-110050000D03*
X181252500Y-109650000D03*
D21*
X181250000Y-109250000D03*
D15*
X181792500Y-108700000D03*
D16*
X182192500Y-108697500D03*
D17*
X182592500Y-108702500D03*
D18*
X182987500Y-108700000D03*
D22*
X183387500Y-108700000D03*
D18*
X183787500Y-108700000D03*
D20*
X184342500Y-109240000D03*
X184342500Y-109640000D03*
X184342500Y-110040000D03*
X184342500Y-110440000D03*
X184342500Y-110840000D03*
X184342500Y-111240000D03*
%TD*%
D23*
%TO.C,U8*%
X178273001Y-98010300D03*
X177773001Y-98010300D03*
D24*
X177250000Y-97749998D03*
X177250000Y-97249999D03*
X177250000Y-96750000D03*
D23*
X177773001Y-96489698D03*
X178273001Y-96489698D03*
D24*
X178796002Y-96750000D03*
X178796002Y-97249999D03*
X178796002Y-97749998D03*
%TD*%
D25*
%TO.C,C8*%
X161688798Y-112816600D03*
X161688798Y-111711000D03*
%TD*%
D26*
%TO.C,R5*%
X167750000Y-90675000D03*
X167750000Y-92500000D03*
%TD*%
D27*
%TO.C,Q1*%
X169360001Y-92524999D03*
X169360001Y-90475001D03*
X171250000Y-91500000D03*
%TD*%
D28*
%TO.C,R9*%
X163688798Y-109263800D03*
X165338798Y-109263800D03*
%TD*%
D29*
%TO.C,C9*%
X163294398Y-114013800D03*
X162188798Y-114013800D03*
%TD*%
D30*
%TO.C,R18*%
X171507000Y-84296000D03*
X173332000Y-84296000D03*
%TD*%
D31*
%TO.C,U10*%
X175700000Y-102000000D03*
X178000000Y-102000000D03*
X180300000Y-102000000D03*
D32*
X178000000Y-108451600D03*
%TD*%
D33*
%TO.C,C17*%
X183750000Y-102750000D03*
X183750000Y-105700000D03*
%TD*%
D13*
%TO.C,R6*%
X170075000Y-94500000D03*
X168250000Y-94500000D03*
%TD*%
%TO.C,R32*%
X183412500Y-116250000D03*
X181587500Y-116250000D03*
%TD*%
D34*
%TO.C,C11*%
X168688798Y-113013800D03*
X169780998Y-113013800D03*
%TD*%
D35*
%TO.C,Q5*%
X165774999Y-112694999D03*
X163725001Y-112694999D03*
X164750000Y-110805000D03*
%TD*%
D25*
%TO.C,C20*%
X185900000Y-110252800D03*
X185900000Y-109147200D03*
%TD*%
%TO.C,C14*%
X177673000Y-100279200D03*
X177673000Y-99173600D03*
%TD*%
D29*
%TO.C,C18*%
X178494400Y-110300000D03*
X179600000Y-110300000D03*
%TD*%
D30*
%TO.C,R20*%
X171469500Y-82621000D03*
X173294500Y-82621000D03*
%TD*%
D25*
%TO.C,C16*%
X182118000Y-82743200D03*
X182118000Y-83848800D03*
%TD*%
D13*
%TO.C,R26*%
X161912500Y-106500000D03*
X160087500Y-106500000D03*
%TD*%
D25*
%TO.C,C15*%
X178816000Y-99187000D03*
X178816000Y-100292600D03*
%TD*%
D30*
%TO.C,R27*%
X169837500Y-104500000D03*
X171662500Y-104500000D03*
%TD*%
D34*
%TO.C,C10*%
X168692698Y-111163800D03*
X169784898Y-111163800D03*
%TD*%
D25*
%TO.C,C19*%
X180100000Y-111500000D03*
X180100000Y-112605600D03*
%TD*%
D13*
%TO.C,R33*%
X183425000Y-113900000D03*
X181600000Y-113900000D03*
%TD*%
M02*
