%TF.GenerationSoftware,KiCad,Pcbnew,8.0.5*%
%TF.CreationDate,2025-02-22T21:21:14-05:00*%
%TF.ProjectId,TR3V3,54523356-332e-46b6-9963-61645f706362,rev?*%
%TF.SameCoordinates,Original*%
%TF.FileFunction,Drillmap*%
%TF.FilePolarity,Positive*%
%FSLAX45Y45*%
G04 Gerber Fmt 4.5, Leading zero omitted, Abs format (unit mm)*
G04 Created by KiCad (PCBNEW 8.0.5) date 2025-02-22 21:21:14*
%MOMM*%
%LPD*%
G01*
G04 APERTURE LIST*
%ADD10C,0.100000*%
%ADD11C,0.200000*%
%ADD12C,0.102000*%
G04 APERTURE END LIST*
D10*
X13924600Y-4851400D02*
X19539800Y-4851400D01*
X19539800Y-12398120D01*
X13924600Y-12398120D01*
X13924600Y-4851400D01*
D11*
D12*
X19324000Y-5874000D02*
X19426000Y-5976000D01*
X19426000Y-5874000D02*
X19324000Y-5976000D01*
X19324000Y-7074000D02*
X19426000Y-7176000D01*
X19426000Y-7074000D02*
X19324000Y-7176000D01*
D11*
X14180377Y-12714604D02*
X14180377Y-12514604D01*
X14180377Y-12514604D02*
X14227996Y-12514604D01*
X14227996Y-12514604D02*
X14256567Y-12524128D01*
X14256567Y-12524128D02*
X14275615Y-12543175D01*
X14275615Y-12543175D02*
X14285139Y-12562223D01*
X14285139Y-12562223D02*
X14294662Y-12600318D01*
X14294662Y-12600318D02*
X14294662Y-12628889D01*
X14294662Y-12628889D02*
X14285139Y-12666985D01*
X14285139Y-12666985D02*
X14275615Y-12686032D01*
X14275615Y-12686032D02*
X14256567Y-12705080D01*
X14256567Y-12705080D02*
X14227996Y-12714604D01*
X14227996Y-12714604D02*
X14180377Y-12714604D01*
X14380377Y-12714604D02*
X14380377Y-12581270D01*
X14380377Y-12619366D02*
X14389901Y-12600318D01*
X14389901Y-12600318D02*
X14399424Y-12590794D01*
X14399424Y-12590794D02*
X14418472Y-12581270D01*
X14418472Y-12581270D02*
X14437520Y-12581270D01*
X14504186Y-12714604D02*
X14504186Y-12581270D01*
X14504186Y-12514604D02*
X14494662Y-12524128D01*
X14494662Y-12524128D02*
X14504186Y-12533651D01*
X14504186Y-12533651D02*
X14513710Y-12524128D01*
X14513710Y-12524128D02*
X14504186Y-12514604D01*
X14504186Y-12514604D02*
X14504186Y-12533651D01*
X14627996Y-12714604D02*
X14608948Y-12705080D01*
X14608948Y-12705080D02*
X14599424Y-12686032D01*
X14599424Y-12686032D02*
X14599424Y-12514604D01*
X14732758Y-12714604D02*
X14713710Y-12705080D01*
X14713710Y-12705080D02*
X14704186Y-12686032D01*
X14704186Y-12686032D02*
X14704186Y-12514604D01*
X14961329Y-12714604D02*
X14961329Y-12514604D01*
X14961329Y-12514604D02*
X15027996Y-12657461D01*
X15027996Y-12657461D02*
X15094662Y-12514604D01*
X15094662Y-12514604D02*
X15094662Y-12714604D01*
X15275615Y-12714604D02*
X15275615Y-12609842D01*
X15275615Y-12609842D02*
X15266091Y-12590794D01*
X15266091Y-12590794D02*
X15247043Y-12581270D01*
X15247043Y-12581270D02*
X15208948Y-12581270D01*
X15208948Y-12581270D02*
X15189901Y-12590794D01*
X15275615Y-12705080D02*
X15256567Y-12714604D01*
X15256567Y-12714604D02*
X15208948Y-12714604D01*
X15208948Y-12714604D02*
X15189901Y-12705080D01*
X15189901Y-12705080D02*
X15180377Y-12686032D01*
X15180377Y-12686032D02*
X15180377Y-12666985D01*
X15180377Y-12666985D02*
X15189901Y-12647937D01*
X15189901Y-12647937D02*
X15208948Y-12638413D01*
X15208948Y-12638413D02*
X15256567Y-12638413D01*
X15256567Y-12638413D02*
X15275615Y-12628889D01*
X15370853Y-12581270D02*
X15370853Y-12781270D01*
X15370853Y-12590794D02*
X15389901Y-12581270D01*
X15389901Y-12581270D02*
X15427996Y-12581270D01*
X15427996Y-12581270D02*
X15447043Y-12590794D01*
X15447043Y-12590794D02*
X15456567Y-12600318D01*
X15456567Y-12600318D02*
X15466091Y-12619366D01*
X15466091Y-12619366D02*
X15466091Y-12676508D01*
X15466091Y-12676508D02*
X15456567Y-12695556D01*
X15456567Y-12695556D02*
X15447043Y-12705080D01*
X15447043Y-12705080D02*
X15427996Y-12714604D01*
X15427996Y-12714604D02*
X15389901Y-12714604D01*
X15389901Y-12714604D02*
X15370853Y-12705080D01*
X15551805Y-12695556D02*
X15561329Y-12705080D01*
X15561329Y-12705080D02*
X15551805Y-12714604D01*
X15551805Y-12714604D02*
X15542282Y-12705080D01*
X15542282Y-12705080D02*
X15551805Y-12695556D01*
X15551805Y-12695556D02*
X15551805Y-12714604D01*
X15551805Y-12590794D02*
X15561329Y-12600318D01*
X15561329Y-12600318D02*
X15551805Y-12609842D01*
X15551805Y-12609842D02*
X15542282Y-12600318D01*
X15542282Y-12600318D02*
X15551805Y-12590794D01*
X15551805Y-12590794D02*
X15551805Y-12609842D01*
D12*
X13817600Y-12992120D02*
X13919600Y-13094120D01*
X13919600Y-12992120D02*
X13817600Y-13094120D01*
D11*
X14285139Y-13134604D02*
X14170853Y-13134604D01*
X14227996Y-13134604D02*
X14227996Y-12934604D01*
X14227996Y-12934604D02*
X14208948Y-12963175D01*
X14208948Y-12963175D02*
X14189901Y-12982223D01*
X14189901Y-12982223D02*
X14170853Y-12991747D01*
X14370853Y-13115556D02*
X14380377Y-13125080D01*
X14380377Y-13125080D02*
X14370853Y-13134604D01*
X14370853Y-13134604D02*
X14361329Y-13125080D01*
X14361329Y-13125080D02*
X14370853Y-13115556D01*
X14370853Y-13115556D02*
X14370853Y-13134604D01*
X14504186Y-12934604D02*
X14523234Y-12934604D01*
X14523234Y-12934604D02*
X14542282Y-12944128D01*
X14542282Y-12944128D02*
X14551805Y-12953651D01*
X14551805Y-12953651D02*
X14561329Y-12972699D01*
X14561329Y-12972699D02*
X14570853Y-13010794D01*
X14570853Y-13010794D02*
X14570853Y-13058413D01*
X14570853Y-13058413D02*
X14561329Y-13096508D01*
X14561329Y-13096508D02*
X14551805Y-13115556D01*
X14551805Y-13115556D02*
X14542282Y-13125080D01*
X14542282Y-13125080D02*
X14523234Y-13134604D01*
X14523234Y-13134604D02*
X14504186Y-13134604D01*
X14504186Y-13134604D02*
X14485139Y-13125080D01*
X14485139Y-13125080D02*
X14475615Y-13115556D01*
X14475615Y-13115556D02*
X14466091Y-13096508D01*
X14466091Y-13096508D02*
X14456567Y-13058413D01*
X14456567Y-13058413D02*
X14456567Y-13010794D01*
X14456567Y-13010794D02*
X14466091Y-12972699D01*
X14466091Y-12972699D02*
X14475615Y-12953651D01*
X14475615Y-12953651D02*
X14485139Y-12944128D01*
X14485139Y-12944128D02*
X14504186Y-12934604D01*
X14647043Y-12953651D02*
X14656567Y-12944128D01*
X14656567Y-12944128D02*
X14675615Y-12934604D01*
X14675615Y-12934604D02*
X14723234Y-12934604D01*
X14723234Y-12934604D02*
X14742282Y-12944128D01*
X14742282Y-12944128D02*
X14751805Y-12953651D01*
X14751805Y-12953651D02*
X14761329Y-12972699D01*
X14761329Y-12972699D02*
X14761329Y-12991747D01*
X14761329Y-12991747D02*
X14751805Y-13020318D01*
X14751805Y-13020318D02*
X14637520Y-13134604D01*
X14637520Y-13134604D02*
X14761329Y-13134604D01*
X14885139Y-12934604D02*
X14904186Y-12934604D01*
X14904186Y-12934604D02*
X14923234Y-12944128D01*
X14923234Y-12944128D02*
X14932758Y-12953651D01*
X14932758Y-12953651D02*
X14942282Y-12972699D01*
X14942282Y-12972699D02*
X14951805Y-13010794D01*
X14951805Y-13010794D02*
X14951805Y-13058413D01*
X14951805Y-13058413D02*
X14942282Y-13096508D01*
X14942282Y-13096508D02*
X14932758Y-13115556D01*
X14932758Y-13115556D02*
X14923234Y-13125080D01*
X14923234Y-13125080D02*
X14904186Y-13134604D01*
X14904186Y-13134604D02*
X14885139Y-13134604D01*
X14885139Y-13134604D02*
X14866091Y-13125080D01*
X14866091Y-13125080D02*
X14856567Y-13115556D01*
X14856567Y-13115556D02*
X14847043Y-13096508D01*
X14847043Y-13096508D02*
X14837520Y-13058413D01*
X14837520Y-13058413D02*
X14837520Y-13010794D01*
X14837520Y-13010794D02*
X14847043Y-12972699D01*
X14847043Y-12972699D02*
X14856567Y-12953651D01*
X14856567Y-12953651D02*
X14866091Y-12944128D01*
X14866091Y-12944128D02*
X14885139Y-12934604D01*
X15037520Y-13134604D02*
X15037520Y-13001270D01*
X15037520Y-13020318D02*
X15047043Y-13010794D01*
X15047043Y-13010794D02*
X15066091Y-13001270D01*
X15066091Y-13001270D02*
X15094663Y-13001270D01*
X15094663Y-13001270D02*
X15113710Y-13010794D01*
X15113710Y-13010794D02*
X15123234Y-13029842D01*
X15123234Y-13029842D02*
X15123234Y-13134604D01*
X15123234Y-13029842D02*
X15132758Y-13010794D01*
X15132758Y-13010794D02*
X15151805Y-13001270D01*
X15151805Y-13001270D02*
X15180377Y-13001270D01*
X15180377Y-13001270D02*
X15199424Y-13010794D01*
X15199424Y-13010794D02*
X15208948Y-13029842D01*
X15208948Y-13029842D02*
X15208948Y-13134604D01*
X15304186Y-13134604D02*
X15304186Y-13001270D01*
X15304186Y-13020318D02*
X15313710Y-13010794D01*
X15313710Y-13010794D02*
X15332758Y-13001270D01*
X15332758Y-13001270D02*
X15361329Y-13001270D01*
X15361329Y-13001270D02*
X15380377Y-13010794D01*
X15380377Y-13010794D02*
X15389901Y-13029842D01*
X15389901Y-13029842D02*
X15389901Y-13134604D01*
X15389901Y-13029842D02*
X15399424Y-13010794D01*
X15399424Y-13010794D02*
X15418472Y-13001270D01*
X15418472Y-13001270D02*
X15447043Y-13001270D01*
X15447043Y-13001270D02*
X15466091Y-13010794D01*
X15466091Y-13010794D02*
X15475615Y-13029842D01*
X15475615Y-13029842D02*
X15475615Y-13134604D01*
X15866091Y-12925080D02*
X15694663Y-13182223D01*
X16123234Y-12934604D02*
X16142282Y-12934604D01*
X16142282Y-12934604D02*
X16161329Y-12944128D01*
X16161329Y-12944128D02*
X16170853Y-12953651D01*
X16170853Y-12953651D02*
X16180377Y-12972699D01*
X16180377Y-12972699D02*
X16189901Y-13010794D01*
X16189901Y-13010794D02*
X16189901Y-13058413D01*
X16189901Y-13058413D02*
X16180377Y-13096508D01*
X16180377Y-13096508D02*
X16170853Y-13115556D01*
X16170853Y-13115556D02*
X16161329Y-13125080D01*
X16161329Y-13125080D02*
X16142282Y-13134604D01*
X16142282Y-13134604D02*
X16123234Y-13134604D01*
X16123234Y-13134604D02*
X16104186Y-13125080D01*
X16104186Y-13125080D02*
X16094663Y-13115556D01*
X16094663Y-13115556D02*
X16085139Y-13096508D01*
X16085139Y-13096508D02*
X16075615Y-13058413D01*
X16075615Y-13058413D02*
X16075615Y-13010794D01*
X16075615Y-13010794D02*
X16085139Y-12972699D01*
X16085139Y-12972699D02*
X16094663Y-12953651D01*
X16094663Y-12953651D02*
X16104186Y-12944128D01*
X16104186Y-12944128D02*
X16123234Y-12934604D01*
X16275615Y-13115556D02*
X16285139Y-13125080D01*
X16285139Y-13125080D02*
X16275615Y-13134604D01*
X16275615Y-13134604D02*
X16266091Y-13125080D01*
X16266091Y-13125080D02*
X16275615Y-13115556D01*
X16275615Y-13115556D02*
X16275615Y-13134604D01*
X16408948Y-12934604D02*
X16427996Y-12934604D01*
X16427996Y-12934604D02*
X16447044Y-12944128D01*
X16447044Y-12944128D02*
X16456567Y-12953651D01*
X16456567Y-12953651D02*
X16466091Y-12972699D01*
X16466091Y-12972699D02*
X16475615Y-13010794D01*
X16475615Y-13010794D02*
X16475615Y-13058413D01*
X16475615Y-13058413D02*
X16466091Y-13096508D01*
X16466091Y-13096508D02*
X16456567Y-13115556D01*
X16456567Y-13115556D02*
X16447044Y-13125080D01*
X16447044Y-13125080D02*
X16427996Y-13134604D01*
X16427996Y-13134604D02*
X16408948Y-13134604D01*
X16408948Y-13134604D02*
X16389901Y-13125080D01*
X16389901Y-13125080D02*
X16380377Y-13115556D01*
X16380377Y-13115556D02*
X16370853Y-13096508D01*
X16370853Y-13096508D02*
X16361329Y-13058413D01*
X16361329Y-13058413D02*
X16361329Y-13010794D01*
X16361329Y-13010794D02*
X16370853Y-12972699D01*
X16370853Y-12972699D02*
X16380377Y-12953651D01*
X16380377Y-12953651D02*
X16389901Y-12944128D01*
X16389901Y-12944128D02*
X16408948Y-12934604D01*
X16647044Y-13001270D02*
X16647044Y-13134604D01*
X16599425Y-12925080D02*
X16551806Y-13067937D01*
X16551806Y-13067937D02*
X16675615Y-13067937D01*
X16789901Y-12934604D02*
X16808949Y-12934604D01*
X16808949Y-12934604D02*
X16827996Y-12944128D01*
X16827996Y-12944128D02*
X16837520Y-12953651D01*
X16837520Y-12953651D02*
X16847044Y-12972699D01*
X16847044Y-12972699D02*
X16856568Y-13010794D01*
X16856568Y-13010794D02*
X16856568Y-13058413D01*
X16856568Y-13058413D02*
X16847044Y-13096508D01*
X16847044Y-13096508D02*
X16837520Y-13115556D01*
X16837520Y-13115556D02*
X16827996Y-13125080D01*
X16827996Y-13125080D02*
X16808949Y-13134604D01*
X16808949Y-13134604D02*
X16789901Y-13134604D01*
X16789901Y-13134604D02*
X16770853Y-13125080D01*
X16770853Y-13125080D02*
X16761329Y-13115556D01*
X16761329Y-13115556D02*
X16751806Y-13096508D01*
X16751806Y-13096508D02*
X16742282Y-13058413D01*
X16742282Y-13058413D02*
X16742282Y-13010794D01*
X16742282Y-13010794D02*
X16751806Y-12972699D01*
X16751806Y-12972699D02*
X16761329Y-12953651D01*
X16761329Y-12953651D02*
X16770853Y-12944128D01*
X16770853Y-12944128D02*
X16789901Y-12934604D01*
X16932758Y-12953651D02*
X16942282Y-12944128D01*
X16942282Y-12944128D02*
X16961329Y-12934604D01*
X16961329Y-12934604D02*
X17008949Y-12934604D01*
X17008949Y-12934604D02*
X17027996Y-12944128D01*
X17027996Y-12944128D02*
X17037520Y-12953651D01*
X17037520Y-12953651D02*
X17047044Y-12972699D01*
X17047044Y-12972699D02*
X17047044Y-12991747D01*
X17047044Y-12991747D02*
X17037520Y-13020318D01*
X17037520Y-13020318D02*
X16923234Y-13134604D01*
X16923234Y-13134604D02*
X17047044Y-13134604D01*
X17123234Y-12934604D02*
X17123234Y-12972699D01*
X17199425Y-12934604D02*
X17199425Y-12972699D01*
X17494663Y-13210794D02*
X17485139Y-13201270D01*
X17485139Y-13201270D02*
X17466091Y-13172699D01*
X17466091Y-13172699D02*
X17456568Y-13153651D01*
X17456568Y-13153651D02*
X17447044Y-13125080D01*
X17447044Y-13125080D02*
X17437520Y-13077461D01*
X17437520Y-13077461D02*
X17437520Y-13039366D01*
X17437520Y-13039366D02*
X17447044Y-12991747D01*
X17447044Y-12991747D02*
X17456568Y-12963175D01*
X17456568Y-12963175D02*
X17466091Y-12944128D01*
X17466091Y-12944128D02*
X17485139Y-12915556D01*
X17485139Y-12915556D02*
X17494663Y-12906032D01*
X17561330Y-12953651D02*
X17570853Y-12944128D01*
X17570853Y-12944128D02*
X17589901Y-12934604D01*
X17589901Y-12934604D02*
X17637520Y-12934604D01*
X17637520Y-12934604D02*
X17656568Y-12944128D01*
X17656568Y-12944128D02*
X17666091Y-12953651D01*
X17666091Y-12953651D02*
X17675615Y-12972699D01*
X17675615Y-12972699D02*
X17675615Y-12991747D01*
X17675615Y-12991747D02*
X17666091Y-13020318D01*
X17666091Y-13020318D02*
X17551806Y-13134604D01*
X17551806Y-13134604D02*
X17675615Y-13134604D01*
X17913711Y-13134604D02*
X17913711Y-12934604D01*
X17999425Y-13134604D02*
X17999425Y-13029842D01*
X17999425Y-13029842D02*
X17989901Y-13010794D01*
X17989901Y-13010794D02*
X17970853Y-13001270D01*
X17970853Y-13001270D02*
X17942282Y-13001270D01*
X17942282Y-13001270D02*
X17923234Y-13010794D01*
X17923234Y-13010794D02*
X17913711Y-13020318D01*
X18123234Y-13134604D02*
X18104187Y-13125080D01*
X18104187Y-13125080D02*
X18094663Y-13115556D01*
X18094663Y-13115556D02*
X18085139Y-13096508D01*
X18085139Y-13096508D02*
X18085139Y-13039366D01*
X18085139Y-13039366D02*
X18094663Y-13020318D01*
X18094663Y-13020318D02*
X18104187Y-13010794D01*
X18104187Y-13010794D02*
X18123234Y-13001270D01*
X18123234Y-13001270D02*
X18151806Y-13001270D01*
X18151806Y-13001270D02*
X18170853Y-13010794D01*
X18170853Y-13010794D02*
X18180377Y-13020318D01*
X18180377Y-13020318D02*
X18189901Y-13039366D01*
X18189901Y-13039366D02*
X18189901Y-13096508D01*
X18189901Y-13096508D02*
X18180377Y-13115556D01*
X18180377Y-13115556D02*
X18170853Y-13125080D01*
X18170853Y-13125080D02*
X18151806Y-13134604D01*
X18151806Y-13134604D02*
X18123234Y-13134604D01*
X18304187Y-13134604D02*
X18285139Y-13125080D01*
X18285139Y-13125080D02*
X18275615Y-13106032D01*
X18275615Y-13106032D02*
X18275615Y-12934604D01*
X18456568Y-13125080D02*
X18437520Y-13134604D01*
X18437520Y-13134604D02*
X18399425Y-13134604D01*
X18399425Y-13134604D02*
X18380377Y-13125080D01*
X18380377Y-13125080D02*
X18370853Y-13106032D01*
X18370853Y-13106032D02*
X18370853Y-13029842D01*
X18370853Y-13029842D02*
X18380377Y-13010794D01*
X18380377Y-13010794D02*
X18399425Y-13001270D01*
X18399425Y-13001270D02*
X18437520Y-13001270D01*
X18437520Y-13001270D02*
X18456568Y-13010794D01*
X18456568Y-13010794D02*
X18466092Y-13029842D01*
X18466092Y-13029842D02*
X18466092Y-13048889D01*
X18466092Y-13048889D02*
X18370853Y-13067937D01*
X18542282Y-13125080D02*
X18561330Y-13134604D01*
X18561330Y-13134604D02*
X18599425Y-13134604D01*
X18599425Y-13134604D02*
X18618473Y-13125080D01*
X18618473Y-13125080D02*
X18627996Y-13106032D01*
X18627996Y-13106032D02*
X18627996Y-13096508D01*
X18627996Y-13096508D02*
X18618473Y-13077461D01*
X18618473Y-13077461D02*
X18599425Y-13067937D01*
X18599425Y-13067937D02*
X18570853Y-13067937D01*
X18570853Y-13067937D02*
X18551806Y-13058413D01*
X18551806Y-13058413D02*
X18542282Y-13039366D01*
X18542282Y-13039366D02*
X18542282Y-13029842D01*
X18542282Y-13029842D02*
X18551806Y-13010794D01*
X18551806Y-13010794D02*
X18570853Y-13001270D01*
X18570853Y-13001270D02*
X18599425Y-13001270D01*
X18599425Y-13001270D02*
X18618473Y-13010794D01*
X18694663Y-13210794D02*
X18704187Y-13201270D01*
X18704187Y-13201270D02*
X18723234Y-13172699D01*
X18723234Y-13172699D02*
X18732758Y-13153651D01*
X18732758Y-13153651D02*
X18742282Y-13125080D01*
X18742282Y-13125080D02*
X18751806Y-13077461D01*
X18751806Y-13077461D02*
X18751806Y-13039366D01*
X18751806Y-13039366D02*
X18742282Y-12991747D01*
X18742282Y-12991747D02*
X18732758Y-12963175D01*
X18732758Y-12963175D02*
X18723234Y-12944128D01*
X18723234Y-12944128D02*
X18704187Y-12915556D01*
X18704187Y-12915556D02*
X18694663Y-12906032D01*
X19056568Y-13210794D02*
X19047044Y-13201270D01*
X19047044Y-13201270D02*
X19027996Y-13172699D01*
X19027996Y-13172699D02*
X19018473Y-13153651D01*
X19018473Y-13153651D02*
X19008949Y-13125080D01*
X19008949Y-13125080D02*
X18999425Y-13077461D01*
X18999425Y-13077461D02*
X18999425Y-13039366D01*
X18999425Y-13039366D02*
X19008949Y-12991747D01*
X19008949Y-12991747D02*
X19018473Y-12963175D01*
X19018473Y-12963175D02*
X19027996Y-12944128D01*
X19027996Y-12944128D02*
X19047044Y-12915556D01*
X19047044Y-12915556D02*
X19056568Y-12906032D01*
X19132758Y-13001270D02*
X19132758Y-13134604D01*
X19132758Y-13020318D02*
X19142282Y-13010794D01*
X19142282Y-13010794D02*
X19161330Y-13001270D01*
X19161330Y-13001270D02*
X19189901Y-13001270D01*
X19189901Y-13001270D02*
X19208949Y-13010794D01*
X19208949Y-13010794D02*
X19218473Y-13029842D01*
X19218473Y-13029842D02*
X19218473Y-13134604D01*
X19342282Y-13134604D02*
X19323234Y-13125080D01*
X19323234Y-13125080D02*
X19313711Y-13115556D01*
X19313711Y-13115556D02*
X19304187Y-13096508D01*
X19304187Y-13096508D02*
X19304187Y-13039366D01*
X19304187Y-13039366D02*
X19313711Y-13020318D01*
X19313711Y-13020318D02*
X19323234Y-13010794D01*
X19323234Y-13010794D02*
X19342282Y-13001270D01*
X19342282Y-13001270D02*
X19370854Y-13001270D01*
X19370854Y-13001270D02*
X19389901Y-13010794D01*
X19389901Y-13010794D02*
X19399425Y-13020318D01*
X19399425Y-13020318D02*
X19408949Y-13039366D01*
X19408949Y-13039366D02*
X19408949Y-13096508D01*
X19408949Y-13096508D02*
X19399425Y-13115556D01*
X19399425Y-13115556D02*
X19389901Y-13125080D01*
X19389901Y-13125080D02*
X19370854Y-13134604D01*
X19370854Y-13134604D02*
X19342282Y-13134604D01*
X19466092Y-13001270D02*
X19542282Y-13001270D01*
X19494663Y-12934604D02*
X19494663Y-13106032D01*
X19494663Y-13106032D02*
X19504187Y-13125080D01*
X19504187Y-13125080D02*
X19523234Y-13134604D01*
X19523234Y-13134604D02*
X19542282Y-13134604D01*
X19761330Y-13001270D02*
X19761330Y-13201270D01*
X19761330Y-13010794D02*
X19780377Y-13001270D01*
X19780377Y-13001270D02*
X19818473Y-13001270D01*
X19818473Y-13001270D02*
X19837520Y-13010794D01*
X19837520Y-13010794D02*
X19847044Y-13020318D01*
X19847044Y-13020318D02*
X19856568Y-13039366D01*
X19856568Y-13039366D02*
X19856568Y-13096508D01*
X19856568Y-13096508D02*
X19847044Y-13115556D01*
X19847044Y-13115556D02*
X19837520Y-13125080D01*
X19837520Y-13125080D02*
X19818473Y-13134604D01*
X19818473Y-13134604D02*
X19780377Y-13134604D01*
X19780377Y-13134604D02*
X19761330Y-13125080D01*
X19970854Y-13134604D02*
X19951806Y-13125080D01*
X19951806Y-13125080D02*
X19942282Y-13106032D01*
X19942282Y-13106032D02*
X19942282Y-12934604D01*
X20132758Y-13134604D02*
X20132758Y-13029842D01*
X20132758Y-13029842D02*
X20123235Y-13010794D01*
X20123235Y-13010794D02*
X20104187Y-13001270D01*
X20104187Y-13001270D02*
X20066092Y-13001270D01*
X20066092Y-13001270D02*
X20047044Y-13010794D01*
X20132758Y-13125080D02*
X20113711Y-13134604D01*
X20113711Y-13134604D02*
X20066092Y-13134604D01*
X20066092Y-13134604D02*
X20047044Y-13125080D01*
X20047044Y-13125080D02*
X20037520Y-13106032D01*
X20037520Y-13106032D02*
X20037520Y-13086985D01*
X20037520Y-13086985D02*
X20047044Y-13067937D01*
X20047044Y-13067937D02*
X20066092Y-13058413D01*
X20066092Y-13058413D02*
X20113711Y-13058413D01*
X20113711Y-13058413D02*
X20132758Y-13048889D01*
X20199425Y-13001270D02*
X20275615Y-13001270D01*
X20227996Y-12934604D02*
X20227996Y-13106032D01*
X20227996Y-13106032D02*
X20237520Y-13125080D01*
X20237520Y-13125080D02*
X20256568Y-13134604D01*
X20256568Y-13134604D02*
X20275615Y-13134604D01*
X20418473Y-13125080D02*
X20399425Y-13134604D01*
X20399425Y-13134604D02*
X20361330Y-13134604D01*
X20361330Y-13134604D02*
X20342282Y-13125080D01*
X20342282Y-13125080D02*
X20332758Y-13106032D01*
X20332758Y-13106032D02*
X20332758Y-13029842D01*
X20332758Y-13029842D02*
X20342282Y-13010794D01*
X20342282Y-13010794D02*
X20361330Y-13001270D01*
X20361330Y-13001270D02*
X20399425Y-13001270D01*
X20399425Y-13001270D02*
X20418473Y-13010794D01*
X20418473Y-13010794D02*
X20427996Y-13029842D01*
X20427996Y-13029842D02*
X20427996Y-13048889D01*
X20427996Y-13048889D02*
X20332758Y-13067937D01*
X20599425Y-13134604D02*
X20599425Y-12934604D01*
X20599425Y-13125080D02*
X20580377Y-13134604D01*
X20580377Y-13134604D02*
X20542282Y-13134604D01*
X20542282Y-13134604D02*
X20523235Y-13125080D01*
X20523235Y-13125080D02*
X20513711Y-13115556D01*
X20513711Y-13115556D02*
X20504187Y-13096508D01*
X20504187Y-13096508D02*
X20504187Y-13039366D01*
X20504187Y-13039366D02*
X20513711Y-13020318D01*
X20513711Y-13020318D02*
X20523235Y-13010794D01*
X20523235Y-13010794D02*
X20542282Y-13001270D01*
X20542282Y-13001270D02*
X20580377Y-13001270D01*
X20580377Y-13001270D02*
X20599425Y-13010794D01*
X20675616Y-13210794D02*
X20685139Y-13201270D01*
X20685139Y-13201270D02*
X20704187Y-13172699D01*
X20704187Y-13172699D02*
X20713711Y-13153651D01*
X20713711Y-13153651D02*
X20723235Y-13125080D01*
X20723235Y-13125080D02*
X20732758Y-13077461D01*
X20732758Y-13077461D02*
X20732758Y-13039366D01*
X20732758Y-13039366D02*
X20723235Y-12991747D01*
X20723235Y-12991747D02*
X20713711Y-12963175D01*
X20713711Y-12963175D02*
X20704187Y-12944128D01*
X20704187Y-12944128D02*
X20685139Y-12915556D01*
X20685139Y-12915556D02*
X20675616Y-12906032D01*
M02*
